<svg width="410" height="271" viewBox="0 0 410 271" fill="none" xmlns="http://www.w3.org/2000/svg">
<g style="mix-blend-mode:multiply">
<path d="M104 60.5C104 27.0868 131.087 0 164.5 0H499C534.898 0 564 29.1015 564 65C564 100.899 534.898 130 499 130H173.5C135.116 130 104 98.8838 104 60.5Z" fill="#C7ECDF"/>
</g>
<g style="mix-blend-mode:multiply">
<path d="M0 138.5C0 105.087 27.0868 78 60.5 78H395C430.898 78 460 107.101 460 143C460 178.899 430.898 208 395 208H69.5C31.1162 208 0 176.884 0 138.5Z" fill="#5174B3"/>
</g>
<g style="mix-blend-mode:multiply">
<circle cx="200" cy="211" r="60" fill="#E58E07"/>
</g>
</svg>
