<svg width="250" height="250" viewBox="0 0 250 250" fill="none" xmlns="http://www.w3.org/2000/svg">
<path d="M125 250C158.152 250 189.946 236.83 213.388 213.388C236.83 189.946 250 158.152 250 125C250 91.848 236.83 60.0537 213.388 36.6117C189.946 13.1696 158.152 6.45495e-06 125 0L125 8.75C155.831 8.75001 185.4 20.9977 207.201 42.7988C229.002 64.6 241.25 94.1686 241.25 125C241.25 155.831 229.002 185.4 207.201 207.201C185.4 229.002 155.831 241.25 125 241.25L125 250Z" fill="url(#paint0_linear_133_18)"/>
<defs>
<linearGradient id="paint0_linear_133_18" x1="234.509" y1="125" x2="140.491" y2="126.603" gradientUnits="userSpaceOnUse">
<stop stop-color="#1C1C1C"/>
<stop offset="1" stop-color="#EBEBEB" stop-opacity="0"/>
</linearGradient>
</defs>
</svg>
