<svg width="60" height="70" viewBox="0 0 60 70" fill="none" xmlns="http://www.w3.org/2000/svg">
<path d="M6.93097 70C5.77959 69.9978 4.64861 69.6917 3.64926 69.1117C1.39894 67.8182 0 65.3074 0 62.5816V7.41878C0 4.68537 1.39894 2.18212 3.64926 0.888646C4.67241 0.292197 5.83472 -0.0145288 7.01471 0.000528873C8.1947 0.0155865 9.34904 0.351875 10.3571 0.974245L56.8354 29.1948C57.8041 29.8109 58.6026 30.6664 59.1561 31.6812C59.7096 32.6959 60 33.8366 60 34.9964C60 36.1561 59.7096 37.2968 59.1561 38.3116C58.6026 39.3263 57.8041 40.1819 56.8354 40.798L10.3496 69.0261C9.31798 69.6587 8.13641 69.9953 6.93097 70Z" fill="url(#paint0_linear_1_8)"/>
<defs>
<linearGradient id="paint0_linear_1_8" x1="-13.4156" y1="26.8209" x2="39.4382" y2="-7.01563" gradientUnits="userSpaceOnUse">
<stop stop-color="#FF9CB5"/>
<stop offset="1" stop-color="#A4A9FF"/>
</linearGradient>
</defs>
</svg>
