<svg width="300" height="300" viewBox="0 0 300 300" fill="none" xmlns="http://www.w3.org/2000/svg">
<path d="M149.9 218.3C187.676 218.3 218.3 187.676 218.3 149.9C218.3 112.124 187.676 81.5 149.9 81.5C112.124 81.5 81.5 112.124 81.5 149.9C81.5 187.676 112.124 218.3 149.9 218.3Z" stroke="#E5B975" stroke-width="3" stroke-linecap="round" stroke-linejoin="round"/>
<path d="M149.9 63.7V2" stroke="#E5B975" stroke-width="3" stroke-linecap="round" stroke-linejoin="round"/>
<path d="M149.9 297.8V236.1" stroke="#E5B975" stroke-width="3" stroke-linecap="round" stroke-linejoin="round"/>
<path d="M236.1 149.9H297.8" stroke="#E5B975" stroke-width="3" stroke-linecap="round" stroke-linejoin="round"/>
<path d="M2 149.9H63.7" stroke="#E5B975" stroke-width="3" stroke-linecap="round" stroke-linejoin="round"/>
<path d="M210.9 88.9001L254.5 45.3" stroke="#E5B975" stroke-width="3" stroke-linecap="round" stroke-linejoin="round"/>
<path d="M45.2998 254.5L88.8998 210.8" stroke="#E5B975" stroke-width="3" stroke-linecap="round" stroke-linejoin="round"/>
<path d="M210.9 210.8L254.5 254.5" stroke="#E5B975" stroke-width="3" stroke-linecap="round" stroke-linejoin="round"/>
<path d="M45.2998 45.3L88.8998 88.9001" stroke="#E5B975" stroke-width="3" stroke-linecap="round" stroke-linejoin="round"/>
<path d="M182.1 69.9001L205.1 12.6001" stroke="#E5B975" stroke-width="3" stroke-linecap="round" stroke-linejoin="round"/>
<path d="M94.7002 287.1L117.7 229.8" stroke="#E5B975" stroke-width="3" stroke-linecap="round" stroke-linejoin="round"/>
<path d="M229.9 182L287.1 205.1" stroke="#E5B975" stroke-width="3" stroke-linecap="round" stroke-linejoin="round"/>
<path d="M12.7002 94.7002L69.9002 117.7" stroke="#E5B975" stroke-width="3" stroke-linecap="round" stroke-linejoin="round"/>
<path d="M229.2 116.1L286 91.9001" stroke="#E5B975" stroke-width="3" stroke-linecap="round" stroke-linejoin="round"/>
<path d="M13.7998 207.8L70.5998 183.7" stroke="#E5B975" stroke-width="3" stroke-linecap="round" stroke-linejoin="round"/>
<path d="M183.7 229.2L207.9 285.9" stroke="#E5B975" stroke-width="3" stroke-linecap="round" stroke-linejoin="round"/>
<path d="M91.8999 13.8L116.1 70.6001" stroke="#E5B975" stroke-width="3" stroke-linecap="round" stroke-linejoin="round"/>
<path d="M220.3 100.1L246.7 81.4001" stroke="#E5B975" stroke-width="3" stroke-linecap="round" stroke-linejoin="round"/>
<path d="M53.1001 218.3L79.5001 199.6" stroke="#E5B975" stroke-width="3" stroke-linecap="round" stroke-linejoin="round"/>
<path d="M199.7 220.2L218.3 246.6" stroke="#E5B975" stroke-width="3" stroke-linecap="round" stroke-linejoin="round"/>
<path d="M81.5 53.1001L100.1 79.5001" stroke="#E5B975" stroke-width="3" stroke-linecap="round" stroke-linejoin="round"/>
<path d="M234.3 132.4L265.9 125.8" stroke="#E5B975" stroke-width="3" stroke-linecap="round" stroke-linejoin="round"/>
<path d="M33.8999 173.9L65.4999 167.4" stroke="#E5B975" stroke-width="3" stroke-linecap="round" stroke-linejoin="round"/>
<path d="M167.4 234.3L174 265.9" stroke="#E5B975" stroke-width="3" stroke-linecap="round" stroke-linejoin="round"/>
<path d="M125.8 33.8L132.4 65.5" stroke="#E5B975" stroke-width="3" stroke-linecap="round" stroke-linejoin="round"/>
<path d="M234.9 164.4L266.7 169.9" stroke="#E5B975" stroke-width="3" stroke-linecap="round" stroke-linejoin="round"/>
<path d="M33.1001 129.8L64.9001 135.3" stroke="#E5B975" stroke-width="3" stroke-linecap="round" stroke-linejoin="round"/>
<path d="M135.3 234.8L129.9 266.7" stroke="#E5B975" stroke-width="3" stroke-linecap="round" stroke-linejoin="round"/>
<path d="M169.9 33.1001L164.5 64.9001" stroke="#E5B975" stroke-width="3" stroke-linecap="round" stroke-linejoin="round"/>
<path d="M197 77.7001L214.7 50.6001" stroke="#E5B975" stroke-width="3" stroke-linecap="round" stroke-linejoin="round"/>
<path d="M85.1001 249.1L102.8 222" stroke="#E5B975" stroke-width="3" stroke-linecap="round" stroke-linejoin="round"/>
<path d="M222.1 197L249.1 214.7" stroke="#E5B975" stroke-width="3" stroke-linecap="round" stroke-linejoin="round"/>
<path d="M50.7002 85.1001L77.7002 102.7" stroke="#E5B975" stroke-width="3" stroke-linecap="round" stroke-linejoin="round"/>
<path d="M168.2 154C165.3 154.4 162.8 155.6 160.7 157.4C162.167 159.467 163.7 161.533 165.3 163.6C163.5 162.9 160.9 161 158.8 159.4C157.2 161.5 156.1 164 155.8 166.7C155.1 173.9 153.8 181.8 151.7 187.2C149.6 181.8 148.3 173.9 147.6 166.7C147.3 164 146.3 161.6 144.7 159.5C142.5 161.2 140.1 162.8 138.1 163.6C139 161.6 140.6 159.3 142.2 157C140.3 155.5 137.9 154.4 135.2 154C129.7 153.3 123.9 152 119 150.1C124.867 148.7 130.533 147.533 136 146.6C138.5 146.1 140.8 145 142.6 143.4C140.9 141.1 138.9 138.4 138.1 136.5C140.367 138.167 142.567 139.733 144.7 141.2C146.2 139.2 147.2 136.8 147.5 134.1C148.3 126.8 149.5 118.5 151.7 113C153.9 118.5 155.1 126.8 155.9 134.1C156.1 136.6 157 138.9 158.4 140.8C160.7 139 163.2 137.4 165.3 136.5C164.3 138.6 162.7 141.1 160.9 143.5C162.7 145 164.9 146.1 167.4 146.5C172.867 147.5 178.533 148.7 184.4 150.1C179.5 152 173.7 153.3 168.2 154Z" stroke="#E5B975" stroke-width="3" stroke-linecap="round" stroke-linejoin="round"/>
</svg>
