<svg width="35" height="55" viewBox="0 0 35 55" fill="none" xmlns="http://www.w3.org/2000/svg">
<path d="M17.4786 55L3.18521 50.5825L0 10.8088H35L31.8114 50.5763L17.4786 55Z" fill="#264DE4"/>
<path d="M29.0816 48.0439L31.8065 14.0608H17.5V51.6186L29.0816 48.0439Z" fill="#2965F1"/>
<path d="M7.30176 28.8125L7.69447 33.6905H17.4997V28.8125H7.30176Z" fill="#EBEBEB"/>
<path d="M6.5127 18.939L6.911 23.8171H17.4998V18.939H6.5127Z" fill="#EBEBEB"/>
<path d="M17.5001 41.4814L17.4809 41.4871L12.601 40.0201L12.2891 36.1296H7.89062L8.50449 43.7889L17.4799 46.5629L17.5001 46.5566V41.4814Z" fill="#EBEBEB"/>
<path d="M8.2373 0H13.5442V2.4707H10.4566V4.94141H13.5442V7.41211H8.2373V0Z" fill="black"/>
<path d="M14.6055 0H19.9124V2.14844H16.8247V2.57813H19.9124V7.51953H14.6055V5.26367H17.6931V4.83398H14.6055V0Z" fill="black"/>
<path d="M20.9736 0H26.2806V2.14844H23.1929V2.57813H26.2806V7.51953H20.9736V5.26367H24.0613V4.83398H20.9736V0Z" fill="black"/>
<path d="M27.6694 28.8123L28.4604 18.939H17.4844V23.8171H23.6585L23.2598 28.8123H17.4844V33.6903H22.8799L22.3713 40.0169L17.4844 41.4853V46.5603L26.467 43.7888L26.5329 42.9646L27.5625 30.1222L27.6694 28.8123Z" fill="white"/>
</svg>
