<svg width="50" height="50" viewBox="0 0 50 50" fill="none" xmlns="http://www.w3.org/2000/svg">
<path fill-rule="evenodd" clip-rule="evenodd" d="M29.8 5.72991L41.352 11.6659C41.6772 11.3593 42.0572 11.0885 42.4882 10.8657C44.8841 9.63994 47.9399 10.3677 49.3315 12.5C50.7087 14.6323 49.891 17.3519 47.4951 18.5904C47.0674 18.8092 46.6181 18.9658 46.1609 19.0632V30.9398C46.6132 31.0375 47.0575 31.1931 47.4808 31.4096C49.891 32.6481 50.7087 35.3677 49.3171 37.5C47.9398 39.6323 44.8697 40.3601 42.4739 39.1343C41.9969 38.8903 41.5825 38.5865 41.2354 38.2397L29.7539 44.1395C29.9181 44.5809 30.0069 45.053 30.0069 45.5439C30.0069 47.9954 27.7689 50 25 50C22.2311 50 19.9931 48.0082 19.9931 45.5439C19.9931 45.1059 20.0638 44.6828 20.1957 44.2832L8.64678 38.3487C8.32497 38.6494 7.95027 38.9151 7.52612 39.1343C5.11593 40.3601 2.06015 39.6323 0.682897 37.5C-0.694355 35.3677 0.123388 32.6481 2.51923 31.4096C2.94284 31.1929 3.38708 31.0372 3.8391 30.9396V19.0632C3.38185 18.9658 2.93262 18.8092 2.50489 18.5904C0.109042 17.3647 -0.708701 14.6323 0.668551 12.5C2.0458 10.3677 5.11593 9.63994 7.51177 10.8657C7.94046 11.0873 8.31862 11.3563 8.64272 11.6609L20.1978 5.72331C20.0646 5.32177 19.9931 4.89647 19.9931 4.45608C19.9931 1.99183 22.2311 0 25 0C27.7689 0 30.0069 1.99183 30.0069 4.45608C30.0069 4.89888 29.9346 5.32643 29.8 5.72991ZM28.5964 7.55881L40.1759 13.5089C39.818 14.6278 39.9493 15.8683 40.6519 16.9561C41.3568 18.0474 42.505 18.7708 43.7794 19.0527V30.9442C43.7145 30.9583 43.6498 30.9737 43.5856 30.9902L28.462 7.67766C28.5076 7.6388 28.5524 7.59917 28.5964 7.55881ZM21.5412 7.68036L6.41784 30.9925C6.35245 30.9756 6.28669 30.9598 6.2206 30.9453V19.0527C7.49496 18.7708 8.64324 18.0474 9.34811 16.9561C10.0521 15.8662 10.1826 14.6229 9.82198 13.5023L21.3982 7.55385C21.4449 7.59687 21.4926 7.63904 21.5412 7.68036ZM26.399 8.73646L41.5189 32.0433C41.1805 32.3304 40.8823 32.665 40.6375 33.0439C40.3942 33.4206 40.2194 33.816 40.1097 34.2186H9.89054C9.78086 33.8163 9.60596 33.4209 9.36245 33.0439C9.11673 32.6674 8.81913 32.3347 8.48243 32.0488L23.6052 8.73755C24.0478 8.85124 24.5158 8.91216 25 8.91216C25.4857 8.91216 25.9551 8.85086 26.399 8.73646ZM28.7028 42.5419L40.2071 36.6304C40.1725 36.5339 40.1417 36.4364 40.1146 36.3381H9.88413C9.8681 36.3959 9.85078 36.4533 9.83218 36.5105L21.3929 42.451C22.3032 41.6103 23.582 41.0878 25 41.0878C26.4684 41.0878 27.7876 41.6481 28.7028 42.5419Z" fill="#E535AB"/>
</svg>
