<svg width="36" height="55" viewBox="0 0 36 55" fill="none" xmlns="http://www.w3.org/2000/svg">
<path d="M35.3337 10.8088L32.1147 50.5763L17.6452 55L3.21559 50.5825L0 10.8088H35.3337Z" fill="#E44D26"/>
<path d="M17.667 51.6186L29.3591 48.0439L32.1099 14.0608H17.667V51.6186Z" fill="#F16529"/>
<path d="M11.4094 23.8173H17.667V18.9392H6.5752L6.68108 20.2479L7.76827 33.6906H17.667V28.8126H11.8137L11.4094 23.8173Z" fill="#EBEBEB"/>
<path d="M12.4062 36.1296H7.96582L8.58554 43.7889L17.6466 46.5629L17.6669 46.5566V41.4814L17.6475 41.4871L12.7212 40.0201L12.4062 36.1296Z" fill="#EBEBEB"/>
<path d="M3.28711 0H5.53503V2.44922H7.59134V0H9.83936V7.41684H7.59144V4.93324H5.53513V7.41684H3.28721V0H3.28711Z" fill="black"/>
<path d="M12.7954 2.45953H10.8164V0H17.0233V2.45953H15.0435V7.41684H12.7955V2.45953H12.7954Z" fill="black"/>
<path d="M18.0088 0H20.3528L21.7946 2.60605L23.235 0H25.5798V7.41684H23.3412V3.74064L21.7946 6.37774H21.7559L20.2083 3.74064V7.41684H18.0088V0Z" fill="black"/>
<path d="M26.6982 0H28.9468V4.96525H32.1081V7.41684H26.6982V0Z" fill="black"/>
<path d="M17.6514 33.6905H23.0983L22.5849 40.017L17.6514 41.4855V46.5605L26.7196 43.7889L26.7861 42.9648L27.8256 30.1224L27.9335 28.8125H17.6514V33.6905Z" fill="white"/>
<path d="M17.6514 23.8054V23.8173H28.336L28.4248 22.7209L28.6263 20.2479L28.7321 18.9392H17.6514V23.8054Z" fill="white"/>
</svg>
