<svg width="50" height="50" viewBox="0 0 50 50" fill="none" xmlns="http://www.w3.org/2000/svg">
<path d="M0 5C0 2.23858 2.23858 0 5 0H45C47.7614 0 50 2.23858 50 5V45C50 47.7614 47.7614 50 45 50H5C2.23858 50 0 47.7614 0 45V5Z" fill="#F7DF1E"/>
<path d="M13.1466 41.7836L13.4626 41.5924C15.3836 40.4298 17.7479 41.8842 19.9933 41.8842V41.8842C21.5373 41.8842 22.5107 41.2802 22.5107 38.931V25.3042C22.5107 24.0067 23.5625 22.9548 24.8601 22.9548V22.9548C26.1576 22.9548 27.2094 24.0067 27.2094 25.3042V38.9975C27.2094 43.8641 24.3567 46.0793 20.1947 46.0793C16.4359 46.0793 14.254 44.1325 13.1465 41.7832" fill="black"/>
<path d="M29.7617 41.2802V41.2802C31.8897 40.0481 34.5311 41.2049 36.9233 41.7741C37.3175 41.8679 37.7476 41.918 38.2194 41.918C40.1663 41.918 41.4078 40.9446 41.4078 39.6021C41.4078 37.991 40.1325 37.4204 37.9844 36.481L36.8101 35.9772C33.42 34.5342 31.1712 32.7218 31.1712 28.8956C31.1712 25.3714 33.8562 22.6863 38.0517 22.6863C40.3329 22.6863 42.1247 23.2931 43.5317 24.7907C44.3181 25.6277 43.974 26.9314 43.0076 27.552V27.552C41.9586 28.2256 40.6451 27.7042 39.5456 27.1167C39.1124 26.8852 38.6249 26.7812 38.0518 26.7812C36.6757 26.7812 35.803 27.6538 35.803 28.7948C35.803 30.2045 36.6757 30.7752 38.6893 31.6479L39.8639 32.1513C43.8579 33.8631 46.1067 35.6082 46.1067 39.5349C46.1067 43.7641 42.784 46.0798 38.3202 46.0798C33.957 46.0798 31.1377 43.999 29.7618 41.2802" fill="black"/>
</svg>
