<svg width="90" height="70" viewBox="0 0 90 70" fill="none" xmlns="http://www.w3.org/2000/svg">
<g filter="url(#filter0_d_176_148)">
<path d="M48.6199 60.0001C48.3826 60.0001 48.1611 59.9263 47.9554 59.7971L45.851 58.339C45.5345 58.136 45.6927 58.0621 45.7877 58.0252C46.2149 57.8591 46.294 57.8222 46.737 57.5269C46.7845 57.49 46.8478 57.5084 46.8953 57.5453L48.5092 58.6712C48.5725 58.7081 48.6516 58.7081 48.6991 58.6712L55.0124 54.4076C55.0756 54.3707 55.1073 54.2969 55.1073 54.2046V45.6959C55.1073 45.6037 55.0756 45.5298 55.0124 45.4929L48.6991 41.2478C48.6358 41.2109 48.5567 41.2109 48.5092 41.2478L42.1959 45.4929C42.1326 45.5298 42.101 45.6221 42.101 45.6959V54.2046C42.101 54.2784 42.1326 54.3707 42.1959 54.4076L43.9206 55.5704C44.8541 56.1241 45.4396 55.4782 45.4396 54.8322V46.4342C45.4396 46.3235 45.5187 46.2127 45.6294 46.2127H46.4364C46.5313 46.2127 46.6263 46.305 46.6263 46.4342V54.8322C46.6263 56.2903 45.9459 57.1393 44.7592 57.1393C44.3953 57.1393 44.1105 57.1393 43.3035 56.6779L41.6421 55.5704C41.2307 55.2936 40.9775 54.7768 40.9775 54.2231V45.7144C40.9775 45.1607 41.2307 44.6439 41.6421 44.367L47.9554 40.1035C48.351 39.8451 48.8889 39.8451 49.2845 40.1035L55.5978 44.367C56.0092 44.6439 56.2623 45.1607 56.2623 45.7144V54.2231C56.2623 54.7768 56.0092 55.2936 55.5978 55.5704L49.2845 59.834C49.0788 59.9447 48.8415 60.0001 48.6199 60.0001ZM50.5661 54.1492C47.7972 54.1492 47.2275 52.6727 47.2275 51.4176C47.2275 51.3069 47.3067 51.1961 47.4174 51.1961H48.2402C48.3351 51.1961 48.4142 51.27 48.4142 51.3807C48.5408 52.3589 48.9048 52.8388 50.582 52.8388C51.9111 52.8388 52.4807 52.4881 52.4807 51.6576C52.4807 51.1777 52.3225 50.827 50.2497 50.587C48.525 50.384 47.4491 49.9411 47.4491 48.3353C47.4491 46.8403 48.525 45.9543 50.3288 45.9543C52.3541 45.9543 53.351 46.7664 53.4775 48.5383C53.4775 48.5937 53.4617 48.6491 53.4301 48.7044C53.3984 48.7413 53.351 48.7783 53.3035 48.7783H52.4807C52.4016 48.7783 52.3225 48.7044 52.3067 48.6121C52.1168 47.597 51.6263 47.2648 50.3288 47.2648C48.8731 47.2648 48.6991 47.8554 48.6991 48.2984C48.6991 48.8336 48.9048 48.9997 50.8668 49.2951C52.813 49.5904 53.7307 50.0149 53.7307 51.6022C53.7149 53.2264 52.5756 54.1492 50.5661 54.1492Z" fill="#539E43"/>
<path d="M29.0316 26.7219C29.0316 26.3897 28.8734 26.0759 28.6203 25.9098L21.9114 21.4063C21.8006 21.3325 21.674 21.2956 21.5475 21.2771H21.4842C21.3576 21.2771 21.231 21.3325 21.1203 21.4063L14.4114 25.9098C14.1582 26.0759 14 26.3897 14 26.7219L14.0158 38.8297C14.0158 38.9958 14.0949 39.1619 14.2215 39.2358C14.3481 39.328 14.5063 39.328 14.6171 39.2358L18.6044 36.578C18.8576 36.4118 19.0158 36.0981 19.0158 35.7658V30.0995C19.0158 29.7673 19.1741 29.4536 19.4272 29.2874L21.1203 28.1431C21.2468 28.0508 21.3892 28.0139 21.5316 28.0139C21.6741 28.0139 21.8165 28.0508 21.9272 28.1431L23.6203 29.2874C23.8734 29.4536 24.0316 29.7673 24.0316 30.0995V35.7658C24.0316 36.0981 24.1899 36.4118 24.443 36.578L28.4304 39.2358C28.557 39.328 28.7152 39.328 28.8418 39.2358C28.9684 39.1619 29.0475 38.9958 29.0475 38.8297L29.0316 26.7219Z" fill="#333333"/>
<path d="M61.2784 10.0554C61.1518 9.98154 60.9936 9.98154 60.8828 10.0554C60.7563 10.1477 60.6772 10.2953 60.6772 10.4614V22.4585C60.6772 22.5692 60.6297 22.68 60.5347 22.7538C60.4398 22.8092 60.3449 22.8092 60.2499 22.7538L58.5727 21.6279C58.3196 21.4618 58.0189 21.4618 57.7658 21.6279L51.0569 26.1499C50.8037 26.316 50.6455 26.6298 50.6455 26.962V35.9875C50.6455 36.3197 50.8037 36.6335 51.0569 36.7996L57.7658 41.3215C58.0189 41.4876 58.3196 41.4876 58.5727 41.3215L65.2816 36.7996C65.5347 36.6335 65.693 36.3197 65.693 35.9875V13.4884C65.693 13.1377 65.5347 12.8239 65.2816 12.6578L61.2784 10.0554ZM60.6613 33.0159C60.6613 33.1082 60.6297 33.182 60.5664 33.2189L58.2721 34.7693C58.2088 34.8062 58.1297 34.8062 58.0664 34.7693L55.7721 33.2189C55.7088 33.182 55.6772 33.0897 55.6772 33.0159V29.9151C55.6772 29.8228 55.7088 29.749 55.7721 29.7121L58.0664 28.1617C58.1297 28.1248 58.2088 28.1248 58.2721 28.1617L60.5664 29.7121C60.6297 29.749 60.6613 29.8413 60.6613 29.9151V33.0159Z" fill="#333333"/>
<path d="M83.6042 29.8413C83.8574 29.6752 83.9998 29.3614 83.9998 29.0292V26.8328C83.9998 26.5006 83.8416 26.1868 83.6042 26.0207L76.9428 21.5172C76.6897 21.351 76.389 21.351 76.1359 21.5172L69.427 26.0391C69.1739 26.2052 69.0156 26.519 69.0156 26.8512V35.8767C69.0156 36.2089 69.1739 36.5227 69.427 36.6888L76.0884 41.1185C76.3416 41.2846 76.6422 41.2846 76.8795 41.1185L80.9144 38.4976C81.0409 38.4238 81.1201 38.2577 81.1201 38.0915C81.1201 37.9254 81.0409 37.7593 80.9144 37.6855L74.1739 33.1635C74.0473 33.0712 73.9682 32.9236 73.9682 32.7575V29.9336C73.9682 29.7674 74.0473 29.6013 74.1739 29.5275L76.2783 28.1248C76.4049 28.0325 76.5631 28.0325 76.6897 28.1248L78.7941 29.5275C78.9207 29.6198 78.9998 29.7674 78.9998 29.9336V32.1484C78.9998 32.3145 79.0789 32.4806 79.2055 32.5544C79.3321 32.6467 79.4903 32.6467 79.6169 32.5544L83.6042 29.8413Z" fill="#333333"/>
<path d="M76.4369 29.4166C76.4844 29.3797 76.5477 29.3797 76.5952 29.4166L77.8768 30.2841C77.9243 30.321 77.9559 30.3764 77.9559 30.4502V32.1852C77.9559 32.259 77.9243 32.3144 77.8768 32.3513L76.5952 33.2187C76.5477 33.2557 76.4844 33.2557 76.4369 33.2187L75.1553 32.3513C75.1078 32.3144 75.0762 32.259 75.0762 32.1852V30.4502C75.0762 30.3764 75.1078 30.321 75.1553 30.2841L76.4369 29.4166Z" fill="#539E43"/>
<mask id="mask0_176_148" style="mask-type:alpha" maskUnits="userSpaceOnUse" x="32" y="21" width="16" height="21">
<path d="M40.2506 21.5543C39.9975 21.3882 39.6968 21.3882 39.4437 21.5543L32.7823 26.0393C32.5291 26.2054 32.3867 26.5192 32.3867 26.8514V35.84C32.3867 36.1722 32.5449 36.486 32.7823 36.6521L39.4437 41.1372C39.6968 41.3033 39.9975 41.3033 40.2506 41.1372L46.912 36.6521C47.1652 36.486 47.3076 36.1722 47.3076 35.84V26.8514C47.3076 26.5192 47.1494 26.2054 46.912 26.0393L40.2506 21.5543Z" fill="white"/>
</mask>
<g mask="url(#mask0_176_148)">
<path d="M40.2506 21.5543C39.9975 21.3882 39.6968 21.3882 39.4437 21.5543L32.7823 26.0393C32.5291 26.2054 32.3867 26.5192 32.3867 26.8514V35.84C32.3867 36.1722 32.5449 36.486 32.7823 36.6521L39.4437 41.1372C39.6968 41.3033 39.9975 41.3033 40.2506 41.1372L46.912 36.6521C47.1652 36.486 47.3076 36.1722 47.3076 35.84V26.8514C47.3076 26.5192 47.1494 26.2054 46.912 26.0393L40.2506 21.5543Z" fill="url(#paint0_linear_176_148)"/>
<path d="M46.928 26.0395L40.235 21.5544C40.1717 21.5175 40.0926 21.4806 40.0293 21.4622L32.5293 36.4492C32.5926 36.5415 32.6717 36.6154 32.7508 36.6707L39.4439 41.1558C39.6337 41.285 39.8552 41.3219 40.0609 41.2481L47.1021 26.2241C47.0546 26.1502 46.9913 26.0949 46.928 26.0395Z" fill="url(#paint1_linear_176_148)"/>
<path fill-rule="evenodd" clip-rule="evenodd" d="M46.9436 36.6521C47.1335 36.5229 47.2759 36.3014 47.3392 36.0615L39.9974 21.4436C39.8075 21.4066 39.6018 21.4251 39.4278 21.5543L32.7822 26.0209L39.9499 41.2664C40.0449 41.2479 40.1556 41.211 40.2506 41.1556L46.9436 36.6521Z" fill="url(#paint2_linear_176_148)"/>
<path fill-rule="evenodd" clip-rule="evenodd" d="M46.9437 36.6523L40.2665 41.1373C40.1715 41.1927 40.0766 41.2296 39.9658 41.2481L40.0924 41.5249L47.4975 36.5231V36.4124L47.3076 36.0432C47.2759 36.3016 47.1335 36.5231 46.9437 36.6523Z" fill="url(#paint3_linear_176_148)"/>
<path fill-rule="evenodd" clip-rule="evenodd" d="M46.9437 36.6523L40.2665 41.1373C40.1715 41.1927 40.0766 41.2296 39.9658 41.2481L40.0924 41.5249L47.4975 36.5231V36.4124L47.3076 36.0432C47.2759 36.3016 47.1335 36.5231 46.9437 36.6523Z" fill="url(#paint4_linear_176_148)"/>
</g>
</g>
<defs>
<filter id="filter0_d_176_148" x="0" y="0" width="90" height="70" filterUnits="userSpaceOnUse" color-interpolation-filters="sRGB">
<feFlood flood-opacity="0" result="BackgroundImageFix"/>
<feColorMatrix in="SourceAlpha" type="matrix" values="0 0 0 0 0 0 0 0 0 0 0 0 0 0 0 0 0 0 127 0" result="hardAlpha"/>
<feOffset dx="-4"/>
<feGaussianBlur stdDeviation="5"/>
<feComposite in2="hardAlpha" operator="out"/>
<feColorMatrix type="matrix" values="0 0 0 0 0 0 0 0 0 0 0 0 0 0 0 0 0 0 0.15 0"/>
<feBlend mode="normal" in2="BackgroundImageFix" result="effect1_dropShadow_176_148"/>
<feBlend mode="normal" in="SourceGraphic" in2="effect1_dropShadow_176_148" result="shape"/>
</filter>
<linearGradient id="paint0_linear_176_148" x1="42.561" y1="24.8977" x2="33.5614" y2="37.0201" gradientUnits="userSpaceOnUse">
<stop stop-color="#41873F"/>
<stop offset="0.3288" stop-color="#418B3D"/>
<stop offset="0.6352" stop-color="#419637"/>
<stop offset="0.9319" stop-color="#3FA92D"/>
<stop offset="1" stop-color="#3FAE2A"/>
</linearGradient>
<linearGradient id="paint1_linear_176_148" x1="38.8359" y1="32.3986" x2="58.2978" y2="23.334" gradientUnits="userSpaceOnUse">
<stop offset="0.1376" stop-color="#41873F"/>
<stop offset="0.4032" stop-color="#54A044"/>
<stop offset="0.7136" stop-color="#66B848"/>
<stop offset="0.9081" stop-color="#6CC04A"/>
</linearGradient>
<linearGradient id="paint2_linear_176_148" x1="32.1433" y1="31.346" x2="47.5574" y2="31.346" gradientUnits="userSpaceOnUse">
<stop offset="0.0919165" stop-color="#6CC04A"/>
<stop offset="0.2864" stop-color="#66B848"/>
<stop offset="0.5968" stop-color="#54A044"/>
<stop offset="0.8624" stop-color="#41873F"/>
</linearGradient>
<linearGradient id="paint3_linear_176_148" x1="32.1434" y1="38.7992" x2="47.5575" y2="38.7992" gradientUnits="userSpaceOnUse">
<stop offset="0.0919165" stop-color="#6CC04A"/>
<stop offset="0.2864" stop-color="#66B848"/>
<stop offset="0.5968" stop-color="#54A044"/>
<stop offset="0.8624" stop-color="#41873F"/>
</linearGradient>
<linearGradient id="paint4_linear_176_148" x1="49.8031" y1="24.473" x2="44.5562" y2="48.0429" gradientUnits="userSpaceOnUse">
<stop stop-color="#41873F"/>
<stop offset="0.3288" stop-color="#418B3D"/>
<stop offset="0.6352" stop-color="#419637"/>
<stop offset="0.9319" stop-color="#3FA92D"/>
<stop offset="1" stop-color="#3FAE2A"/>
</linearGradient>
</defs>
</svg>
