<svg width="50" height="50" viewBox="0 0 50 50" fill="none" xmlns="http://www.w3.org/2000/svg">
<path d="M41.11 16.2059C40.5913 16.0053 40.0539 15.8154 39.5005 15.6359C39.5914 15.2186 39.6749 14.8068 39.7491 14.402C40.9675 7.7546 40.1709 2.39943 37.4506 0.636284C34.8423 -1.05434 30.5764 0.708407 26.2682 4.92252C25.8539 5.32775 25.4384 5.75678 25.0231 6.20642C24.7464 5.90893 24.4702 5.62144 24.1946 5.34645C19.6794 0.840448 15.1536 -1.05844 12.4361 0.709807C9.83015 2.40533 9.05844 7.4397 10.1552 13.7395C10.2611 14.348 10.3849 14.9693 10.5249 15.6011C9.88435 15.8055 9.26599 16.0234 8.67432 16.2551C3.38073 18.3295 0 21.5805 0 24.9527C0 28.4354 3.62921 31.9287 9.1429 34.0469C9.57802 34.214 10.0295 34.3721 10.4948 34.5221C10.3438 35.2055 10.2124 35.8751 10.1021 36.5282C9.05639 42.7186 9.87305 47.634 12.472 49.3189C15.1565 51.0588 19.6618 49.2703 24.0489 44.9602C24.3956 44.6195 24.7436 44.2582 25.0922 43.8795C25.5441 44.3685 25.9952 44.8314 26.4439 45.2655C30.6933 49.3755 34.8902 51.0351 37.4868 49.3456C40.1686 47.6006 41.0402 42.3203 39.9086 35.8959C39.8222 35.4052 39.7216 34.904 39.6087 34.3938C39.9251 34.2887 40.2357 34.1801 40.5386 34.0673C46.2706 31.9327 50 28.482 50 24.9527C50 21.5683 46.5102 18.2954 41.11 16.2059ZM39.8668 31.7885C39.5934 31.8902 39.3129 31.9886 39.027 32.0839C38.3942 29.8323 37.5402 27.438 36.4951 24.9644C37.4924 22.5496 38.3134 20.186 38.9285 17.949C39.44 18.1153 39.9364 18.2908 40.4148 18.4759C45.0417 20.2662 47.864 22.9131 47.864 24.9527C47.864 27.1251 44.816 29.9453 39.8668 31.7885ZM37.8132 36.3621C38.3136 39.2029 38.3851 41.7713 38.0536 43.7791C37.7558 45.5833 37.157 46.7862 36.4165 47.2679C34.8407 48.293 31.4711 46.9605 27.8369 43.4456C27.4203 43.0427 27.0007 42.6125 26.5797 42.1571C27.9886 40.4253 29.3967 38.412 30.7709 36.176C33.188 35.9349 35.4717 35.5408 37.5426 35.0027C37.6446 35.4651 37.7352 35.9187 37.8132 36.3621ZM17.0461 47.0908C15.5066 47.7018 14.2805 47.7194 13.5393 47.239C11.9621 46.2166 11.3065 42.27 12.2008 36.9759C12.3033 36.3696 12.4252 35.7468 12.5657 35.1102C14.614 35.6193 16.8809 35.9856 19.3038 36.2064C20.6873 38.3943 22.136 40.4055 23.5959 42.1664C23.277 42.5125 22.9592 42.842 22.6433 43.1525C20.7034 45.0584 18.7594 46.4106 17.0461 47.0908ZM9.83371 31.7752C7.39567 30.8386 5.38223 29.6213 4.00212 28.293C2.76201 27.0993 2.13589 25.9143 2.13589 24.9527C2.13589 22.9063 4.85029 20.2962 9.37741 18.5222C9.92672 18.3069 10.5017 18.104 11.0985 17.9135C11.7241 20.201 12.5449 22.5926 13.5354 25.0111C12.5321 27.4654 11.6997 29.8952 11.0679 32.2095C10.6425 32.0721 10.2303 31.9274 9.83371 31.7752ZM12.2514 13.2784C11.3117 7.88094 11.9358 3.80927 13.5062 2.78755C15.1789 1.69911 18.8778 3.251 22.7764 7.14171C23.0256 7.39039 23.2757 7.65067 23.5266 7.91995C22.0739 9.6732 20.6384 11.6692 19.2672 13.8443C16.9157 14.0893 14.6647 14.4828 12.5951 15.0098C12.465 14.4215 12.3497 13.8435 12.2514 13.2784ZM33.8191 19.2642C33.3244 18.3037 32.8165 17.3659 32.2987 16.4537C33.894 16.6804 35.4224 16.9813 36.8578 17.3495C36.4269 18.9018 35.8898 20.5248 35.2575 22.1886C34.804 21.2208 34.3243 20.245 33.8191 19.2642ZM25.0239 9.63569C26.0091 10.8354 26.9957 12.1748 27.9662 13.628C26.9882 13.5761 25.9982 13.5491 25 13.5491C24.0112 13.5491 23.0285 13.5755 22.0566 13.6265C23.028 12.1868 24.0232 10.8492 25.0239 9.63569ZM16.1722 19.2808C15.678 20.244 15.2072 21.2145 14.7608 22.1868C14.1388 20.5288 13.6067 18.8984 13.172 17.3241C14.5986 16.9653 16.1198 16.6719 17.705 16.4495C17.1799 17.3701 16.6678 18.3148 16.1722 19.2806V19.2808ZM17.7506 33.6271C16.1129 33.4217 14.5687 33.1434 13.1425 32.7945C13.5841 31.1921 14.128 29.5269 14.7632 27.8332C15.2108 28.8048 15.6835 29.7757 16.1807 30.741H16.1808C16.6873 31.7244 17.212 32.6877 17.7506 33.6271ZM25.0829 40.4389C24.0706 39.2112 23.0608 37.8532 22.0746 36.3924C23.032 36.4346 24.008 36.4562 25 36.4562C26.0191 36.4562 27.0266 36.4304 28.0182 36.3808C27.0446 37.8679 26.0615 39.228 25.0829 40.4389ZM35.2779 27.7468C35.9462 29.4589 36.5096 31.1154 36.9569 32.6905C35.5072 33.0622 33.9419 33.3616 32.2928 33.584C32.8118 32.6596 33.3242 31.7057 33.8277 30.7245C34.337 29.7317 34.8206 28.7375 35.2779 27.7468ZM31.9775 29.5251C31.1959 31.0483 30.3934 32.5023 29.5788 33.8748C28.0951 33.9941 26.5623 34.0555 25 34.0555C23.444 34.0555 21.9305 34.0012 20.473 33.8948C19.6256 32.5043 18.8057 31.046 18.0291 29.5382H18.0293C17.2547 28.0345 16.5419 26.5181 15.8959 25.0103C16.5417 23.4989 17.2527 21.9808 18.0228 20.4799L18.0226 20.4802C18.7948 18.9752 19.6074 17.5239 20.4471 16.1421C21.9341 16.0158 23.4589 15.9499 24.9999 15.9499H25C26.548 15.9499 28.0747 16.0163 29.5613 16.1437C30.3881 17.5154 31.1952 18.962 31.9704 20.4672C32.7544 21.9892 33.4746 23.4972 34.1259 24.9762C33.4766 26.4805 32.758 28.0037 31.9775 29.5251ZM36.3837 2.71613C38.0581 3.80137 38.7092 8.17813 37.6572 13.9174C37.5901 14.2836 37.5146 14.6567 37.4325 15.0347C35.3581 14.4967 33.1055 14.0964 30.7471 13.8477C29.3732 11.6487 27.9495 9.64959 26.5205 7.91885C26.9047 7.50342 27.2884 7.1073 27.6704 6.73348C31.3618 3.12286 34.8118 1.69731 36.3837 2.71613ZM25 19.9344C27.4658 19.9344 29.4648 22.1811 29.4648 24.9527C29.4648 27.7241 27.4658 29.9709 25 29.9709C22.5342 29.9709 20.5352 27.7241 20.5352 24.9527C20.5352 22.1811 22.5342 19.9344 25 19.9344Z" fill="#00D8FF"/>
</svg>
