<svg width="50" height="50" viewBox="0 0 50 50" fill="none" xmlns="http://www.w3.org/2000/svg">
<path d="M45 0H5C2.23858 0 0 2.23858 0 5V45C0 47.7614 2.23858 50 5 50H45C47.7614 50 50 47.7614 50 45V5C50 2.23858 47.7614 0 45 0Z" fill="#1976D2"/>
<path d="M29.8476 22.2222H11.4268V26.7555H18.0337V47.2222H23.2684V26.7555H29.8476V22.2222Z" fill="white"/>
<path d="M46.1028 27.8945C46.1028 27.8945 43.6209 26.2389 40.8153 26.2389C38.0098 26.2389 37.0001 27.5722 37.0001 28.9972C37.0001 32.675 47.2515 32.307 47.2515 39.7084C47.2515 51.1097 31.6209 46.0528 31.6209 46.0528V40.5834C31.6209 40.5834 34.6098 42.8361 38.1945 42.8361C41.7792 42.8361 41.6431 40.4917 41.6431 40.1695C41.6431 36.7681 31.4834 36.7681 31.4834 29.2278C31.4834 18.9764 46.2862 23.0209 46.2862 23.0209L46.1028 27.8945Z" fill="white"/>
</svg>
